<mxfile host="65bd71144e" modified="2020-12-23T12:07:27.661Z" agent="5.0 (Windows NT 10.0; Win64; x64) AppleWebKit/537.36 (KHTML, like Gecko) Code/1.52.1 Chrome/83.0.4103.122 Electron/9.3.5 Safari/537.36" etag="BncnqKlwzsVYZwwsFJP6" version="13.10.0" type="embed">
    <diagram id="a-xjg2M0r9j_YNXPw-c_" name="Page-1">
        <mxGraphModel dx="1770" dy="1317" grid="1" gridSize="10" guides="1" tooltips="1" connect="1" arrows="1" fold="1" page="1" pageScale="1" pageWidth="850" pageHeight="1100" math="0" shadow="0">
            <root>
                <mxCell id="0"/>
                <mxCell id="1" parent="0"/>
                <mxCell id="2" value="" style="rounded=0;whiteSpace=wrap;html=1;fillColor=#f5f5f5;fontColor=#333333;strokeColor=#030303;strokeWidth=2;" parent="1" vertex="1">
                    <mxGeometry y="335" width="850" height="545" as="geometry"/>
                </mxCell>
                <mxCell id="3" value="" style="rounded=0;whiteSpace=wrap;html=1;strokeColor=#030303;strokeWidth=2;" parent="1" vertex="1">
                    <mxGeometry y="335" width="850" height="25" as="geometry"/>
                </mxCell>
                <mxCell id="4" value="File" style="rounded=0;whiteSpace=wrap;html=1;strokeColor=#030303;strokeWidth=2;" parent="1" vertex="1">
                    <mxGeometry y="335" width="70" height="25" as="geometry"/>
                </mxCell>
                <mxCell id="5" value="View" style="rounded=0;whiteSpace=wrap;html=1;strokeColor=#030303;strokeWidth=2;" parent="1" vertex="1">
                    <mxGeometry x="70" y="335" width="70" height="25" as="geometry"/>
                </mxCell>
                <mxCell id="6" value="Edit" style="rounded=0;whiteSpace=wrap;html=1;strokeColor=#030303;strokeWidth=2;" parent="1" vertex="1">
                    <mxGeometry x="140" y="335" width="70" height="25" as="geometry"/>
                </mxCell>
                <mxCell id="7" value="Help" style="rounded=0;whiteSpace=wrap;html=1;strokeColor=#030303;strokeWidth=2;" parent="1" vertex="1">
                    <mxGeometry x="210" y="335" width="70" height="25" as="geometry"/>
                </mxCell>
                <mxCell id="8" value="X" style="rounded=0;whiteSpace=wrap;html=1;strokeWidth=2;fillColor=#a20025;fontColor=#ffffff;strokeColor=none;" parent="1" vertex="1">
                    <mxGeometry x="825" y="335" width="25" height="25" as="geometry"/>
                </mxCell>
                <mxCell id="11" value="_" style="rounded=0;whiteSpace=wrap;html=1;strokeWidth=2;fillColor=#0050ef;fontColor=#ffffff;strokeColor=none;" parent="1" vertex="1">
                    <mxGeometry x="775" y="335" width="25" height="25" as="geometry"/>
                </mxCell>
                <mxCell id="12" value="&lt;font color=&quot;#000000&quot; style=&quot;font-size: 36px&quot;&gt;Timeline&lt;/font&gt;" style="rounded=0;whiteSpace=wrap;html=1;strokeWidth=2;fillColor=#6a00ff;fontColor=#ffffff;strokeColor=#08001C;" parent="1" vertex="1">
                    <mxGeometry y="680" width="850" height="200" as="geometry"/>
                </mxCell>
                <mxCell id="13" value="&lt;font color=&quot;#000000&quot; style=&quot;font-size: 36px&quot;&gt;Preview Area&lt;/font&gt;" style="rounded=0;whiteSpace=wrap;html=1;strokeWidth=2;fillColor=#fa6800;fontColor=#ffffff;strokeColor=#190700;" parent="1" vertex="1">
                    <mxGeometry y="360" width="360" height="320" as="geometry"/>
                </mxCell>
                <mxCell id="14" value="&lt;font color=&quot;#000000&quot; style=&quot;font-size: 36px&quot;&gt;Context Area&lt;/font&gt;" style="rounded=0;whiteSpace=wrap;html=1;strokeWidth=2;fillColor=#6d8764;fontColor=#ffffff;strokeColor=#0C120A;" parent="1" vertex="1">
                    <mxGeometry x="360" y="360" width="280" height="320" as="geometry"/>
                </mxCell>
                <mxCell id="15" value="" style="group" parent="1" vertex="1" connectable="0">
                    <mxGeometry x="800" y="335" width="25" height="25" as="geometry"/>
                </mxCell>
                <mxCell id="9" value="" style="rounded=0;whiteSpace=wrap;html=1;strokeWidth=2;fillColor=#008a00;fontColor=#ffffff;strokeColor=none;" parent="15" vertex="1">
                    <mxGeometry width="25" height="25" as="geometry"/>
                </mxCell>
                <mxCell id="10" value="" style="rounded=0;whiteSpace=wrap;html=1;strokeColor=#030303;strokeWidth=2;fillColor=none;" parent="15" vertex="1">
                    <mxGeometry x="7.5" y="7.5" width="10" height="10" as="geometry"/>
                </mxCell>
                <mxCell id="17" value="&lt;font color=&quot;#000000&quot; style=&quot;font-size: 36px&quot;&gt;Device List&lt;/font&gt;" style="rounded=0;whiteSpace=wrap;html=1;strokeWidth=2;fillColor=#e3c800;fontColor=#ffffff;strokeColor=#362D00;" parent="1" vertex="1">
                    <mxGeometry x="640" y="360" width="210" height="320" as="geometry"/>
                </mxCell>
                <mxCell id="18" value="&lt;font style=&quot;font-size: 20px&quot;&gt;Layout not static, it can be rearranged and customized by the user.&lt;/font&gt;" style="shape=callout;whiteSpace=wrap;html=1;perimeter=calloutPerimeter;position2=0;size=90;position=0.18;base=40;" parent="1" vertex="1">
                    <mxGeometry x="480" y="80" width="279" height="250" as="geometry"/>
                </mxCell>
            </root>
        </mxGraphModel>
    </diagram>
</mxfile>
